<?xml version="1.0" encoding="utf-8"?>
<svg viewBox="11.3332 21.2805 93.036 37.132" xmlns="http://www.w3.org/2000/svg">
	<g fill="#000" transform="matrix(1, 0, 0, 1, 11.33321762084961, 21.2805118560791)">
		<path xmlns="http://www.w3.org/2000/svg" d="M74.244,0.089c-5.195,0-9.898,2.069-13.299,5.413c-3.4-3.344-8.093-5.413-13.274-5.413c-5.789,0-10.963,2.586-14.41,6.645  C29.815,2.627,24.618,0,18.788,0C8.414,0,0,8.292,0,18.52c0,10.229,8.414,18.522,18.788,18.522c5.788,0,10.946-2.59,14.387-6.648  c3.447,4.115,8.661,6.738,14.496,6.738c5.229,0,9.958-2.111,13.364-5.51c3.396,3.293,8.058,5.33,13.209,5.33  c10.378,0,18.792-8.252,18.792-18.431C93.036,8.34,84.622,0.089,74.244,0.089z M18.646,34.397c-8.631,0-15.633-6.984-15.633-15.601  c0-8.612,7.002-15.596,15.633-15.596c5.185,0,9.765,2.532,12.61,6.408c-1.508,2.667-2.375,5.733-2.375,9.001  c0,3.354,0.918,6.491,2.5,9.204C28.549,31.792,23.91,34.397,18.646,34.397z M47.528,34.487c-8.63,0-15.633-6.984-15.633-15.602  c0-8.612,7.002-15.596,15.633-15.596c4.42,0,8.404,1.838,11.248,4.778c-2.09,2.971-3.32,6.569-3.32,10.453  c0,4.062,1.355,7.806,3.624,10.851C56.22,32.507,52.111,34.487,47.528,34.487z M74.244,24.579c-3.8,0-6.882-2.866-6.882-6.397  c0-3.531,3.082-6.396,6.882-6.396c3.801,0,6.886,2.865,6.886,6.396C81.129,21.713,78.044,24.579,74.244,24.579z"/>
		<path xmlns="http://www.w3.org/2000/svg" d="M74.28,13.168c-2.983,0-5.406,2.266-5.406,5.057c0,2.794,2.423,5.062,5.406,5.062c2.985,0,5.401-2.268,5.401-5.062  C79.681,15.434,77.265,13.168,74.28,13.168z M74.28,19.889c-1.095,0-1.977-0.785-1.977-1.755c0-0.967,0.882-1.755,1.977-1.755  c1.093,0,1.979,0.788,1.979,1.755C76.258,19.104,75.373,19.889,74.28,19.889z"/>
		<polygon xmlns="http://www.w3.org/2000/svg" points="41.501,12.57 41.471,18.61 41.444,24.649 47.672,21.657 53.9,18.665 47.7,15.618 "/>
		<path xmlns="http://www.w3.org/2000/svg" d="M21.245,22.222l-4.521-8.254c0.918-0.999,1.17-2.491,0.518-3.757c-0.624-1.206-1.893-1.86-3.176-1.767l1.618,3.131  l-2.421,1.254l-1.602-3.101c-0.774,0.992-0.955,2.374-0.345,3.555c0.642,1.242,1.971,1.898,3.293,1.756l4.614,8.422  c-0.77,0.992-0.948,2.369-0.339,3.547c0.623,1.207,1.893,1.861,3.175,1.768l-1.618-3.131l2.421-1.254l1.602,3.102  c0.774-0.992,0.955-2.375,0.346-3.557C24.123,22.61,22.653,21.95,21.245,22.222z"/>
	</g>
</svg>